<?xml version="1.0" encoding="utf-8"?>
<!-- Generator: Adobe Illustrator 27.0.0, SVG Export Plug-In . SVG Version: 6.00 Build 0)  -->
<svg version="1.1" id="Layer_1" xmlns="http://www.w3.org/2000/svg" xmlns:xlink="http://www.w3.org/1999/xlink" x="0px" y="0px"
	 viewBox="0 0 144 144" style="enable-background:new 0 0 144 144;" xml:space="preserve">
<style type="text/css">
	.st0{fill:#FFFFFF;}
</style>
<g>
	<path class="st0" d="M53,49.5c0.9-1.1,1.4-2.2,2-3.3c1.1-1.9,2-4.1,2.3-6.5c0-1.1,0-2.4-0.3-3.5c-0.6-1.4-1.4-2.4-2.6-3.5
		c-0.6-0.5-1.1-0.8-1.7-1.1C52.1,31.3,51.5,31,51,31c-1.1-0.3-2.3-0.5-3.4-0.5c-2.3-0.3-4.3,0.3-6.3,0.5c-0.6,0-2.6,0.8-3.1,1.1
		c-2,0.8-2.3,1.1-4.3,1.6V19.9c4.3,0,68.5,0.3,70.5,0.3c-0.9,1.1-70.5,92.7-71.3,93.8V68c0.3,0,0.3-0.3,0.6-0.3
		c1.4-1.1,4.5-3.5,6.3-4.9c0.6-0.5,1.1-0.8,1.1-1.1c1.7-1.4,3.1-3,4.8-4.4C48.4,55.2,50.7,52.5,53,49.5 M42.4,48.7
		c-0.6,0.5-1.1,1.1-1.7,1.9c-0.3,0.5-0.9,0.8-1.4,1.4c-4.8,4.6-9.9,9.2-14.8,13.6l-0.3,72.6l95.5-125.4l-95.2-0.3v35.1
		c4.8-2.4,9.9-4.9,14.8-7.3c0.6-0.3,1.4-0.8,2-1.1c1.1-0.3,2.3-0.5,3.4-0.8c0.6,0,1.4,0,1.7,0.5c1.7,1.6-0.6,4.6-0.9,5.2
		C44.7,45.7,43.6,47.4,42.4,48.7"/>
	<path class="st0" d="M41,65.6c-0.6,0.5-2,1.6-2.8,2.2v10.1c0.9-0.8,2.3-1.6,3.4-2.4c2-1.6,4-2.7,6-4.4c2.6-2.2,5.1-4.4,7.7-6.5
		c0.9-0.8,2-1.6,2.8-2.7c1.1-1.1,2.3-2.4,3.4-3.5c0.6-0.5,1.1-1.4,1.7-2.2c1.1-1.4,2.3-2.7,3.1-4.1c1.1-1.4,1.7-2.7,2.6-4.4
		c0.6-1.1,1.1-2.2,1.4-3.3c0.6-1.1,0.9-2.4,1.1-3.8c0-0.5,0-1.4,0.3-1.9v-2.7c-0.3-2.4-1.1-4.6-2.6-6.5c-1.1-1.4-2.3-2.7-3.7-3.5
		c-0.3-0.3-0.3-0.3-0.6-0.5H40.4l-0.3,4.4c0.9,0,1.7-0.5,2.6-0.5c1.1-0.3,2.3-0.3,3.7-0.3c0.9,0,4.3,0.3,5.1,0.3
		c0.6,0,1.4,0.3,2,0.5c0.6,0.3,1.1,0.5,1.7,0.5c1.4,0.5,2.6,1.4,3.7,2.4c0.6,0.5,1.1,1.1,1.4,1.9c0.6,0.8,0.9,1.9,0.9,3
		c0,0.5,0.3,1.4,0,1.9c-0.3,0.8-0.3,1.4-0.3,2.2c-0.3,0.5-0.6,1.1-0.6,1.6c0,0.3-0.3,0.5-0.3,1.1c-0.6,0.8-0.9,1.9-1.4,2.7
		c-2.3,3.5-4.8,6.5-7.7,9.5c-1.7,1.9-3.7,3.5-5.7,5.4c-0.9,0.8-1.7,1.6-2.6,2.4C42.2,64.8,41.6,65,41,65.6"/>
	<path class="st0" d="M71.1,25.9c0.6,0.3,0.9,0.8,1.1,1.1c0.3,0.3,0.6,0.8,0.9,1.1c0.3,0.5,0.6,0.8,0.9,1.4c1.1,1.9,1.7,4.4,2,6.8
		c0,1.9-0.3,4.1-0.9,6c-1.1,3.5-2.8,6.5-4.8,9.5c-1.7,2.4-3.7,5.2-6,7.3c-0.6,0.5-1.4,1.4-2,1.9c-0.6,0.5-0.9,1.1-1.4,1.4
		c-2,1.9-4,3.8-6,5.4c-1.7,1.4-3.4,2.7-5.1,4.4c-0.6,0.5-1.1,0.8-1.7,1.4c-1.4,1.1-2.8,1.9-4.3,3.3c-0.6,0.5-1.4,0.8-2,1.1
		c-0.6,0.3-3.1,1.9-3.7,2.2v9.2c0.6-0.5,1.4-0.8,2.3-1.1c0.6-0.3,1.1-0.5,1.7-1.1c0.3-0.3,0.9-0.3,1.1-0.5c0.6-0.3,1.1-0.8,1.7-1.1
		c0.9-0.5,1.7-0.8,2.3-1.4c0.3-0.3,0.6-0.5,1.1-0.5c0.9-0.5,2-1.4,2.8-1.9c0.3-0.3,34.7-45.7,35-46.2c0-0.5-0.3-1.4-0.3-1.9
		c-0.3-1.9-0.6-3.5-1.4-5.2c-0.3-1.1-1.1-1.6-1.4-2.7H70C70.6,25.6,70.9,25.9,71.1,25.9"/>
	<path class="st0" d="M40.7,90.6c-0.9,0.5-1.7,0.8-2.6,1.1v6.8c0.3-0.3,8.2-10.6,8.5-11.4c-0.6,0.3-1.1,0.8-1.7,1.1
		C43.9,89,42.4,89.8,40.7,90.6"/>
	<path class="st0" d="M90.2,30.8L90.2,30.8c0.3-0.5,1.1-1.4,1.4-1.9c0.9-1.1,1.7-2.4,2.6-3.5h-6c0.3,0.3,0.6,1.1,0.9,1.4
		C89.6,28.1,89.9,29.4,90.2,30.8"/>
</g>
</svg>
